<?xml version="1.0" encoding="UTF-8" standalone="no"?><!DOCTYPE svg PUBLIC "-//W3C//DTD SVG 1.1//EN" "http://www.w3.org/Graphics/SVG/1.1/DTD/svg11.dtd">
<svg width="128px" height="128px" version="1.1" xmlns="http://www.w3.org/2000/svg"
    xml:space="preserve" style="fill-rule:evenodd;clip-rule:evenodd;stroke-linejoin:round;stroke-miterlimit:2;"><g transform="matrix(1.04585,0,0,1.04585,-1.53297,-2.79869)"><path d="M114.67,70.19C112.71,44.22 94.44,26.3 64,26.3C33.56,26.3 15.25,45.33 13.45,71.31C12.4,86.45 18.03,99.94 29.36,107.63C36.82,112.7 47.24,115.51 64.13,115.51C81.31,115.51 91.16,111.8 98.62,106.78C111.05,98.43 115.8,85.11 114.67,70.19Z" style="fill:#ffc022;fill-rule:nonzero;"/></g><g transform="matrix(1.04585,0,0,1.04585,-1.53297,-2.79869)"><g><g><path d="M53.72,42.6C46.3,23.4 30.1,10.34 23.87,8.39C21.52,7.65 18.57,7.58 17.24,9.74C13.88,15.19 9.58,32.69 19.09,57.52L53.72,42.6Z" style="fill:#ffc022;fill-rule:nonzero;"/></g><path d="M36.12,34.21C37.66,32.92 38.41,31.66 36.72,29.05C34.1,25 29.39,20.27 27.56,18.82C24.56,16.44 22.24,15.64 21.35,19.47C19.7,26.55 19.83,36.16 21.6,41.46C22.22,43.33 24.14,44.32 25.62,43.03L36.12,34.21Z" style="fill:#ffd1d1;fill-rule:nonzero;"/></g></g><g transform="matrix(1.04585,0,0,1.04585,-1.53297,-2.79869)"><path d="M54.12,45.02C55.25,45.98 57.54,45.84 58.87,44.3C60.48,42.43 62.16,36.13 61.11,26.39C56.44,26.56 52.02,27.23 47.9,28.36C51.23,33.82 52.03,43.24 54.12,45.02Z" style="fill:#ff9b31;fill-rule:nonzero;"/></g><g transform="matrix(1.04585,0,0,1.04585,-1.53297,-2.79869)"><path d="M73.88,45.02C72.75,45.98 70.46,45.84 69.13,44.3C67.52,42.43 65.84,36.13 66.89,26.39C71.56,26.56 75.98,27.23 80.1,28.36C76.77,33.82 75.97,43.24 73.88,45.02Z" style="fill:#ff9b31;fill-rule:nonzero;"/></g><g transform="matrix(1.04585,0,0,1.04585,-1.53297,-2.79869)"><path d="M79.9,29.22C87.98,16.81 99.28,8.47 103.97,6.98C106.29,6.24 108.99,6.36 110.31,8.53C113.63,13.98 116.44,30.77 109.89,54.28L85.96,42.74L79.9,29.22Z" style="fill:#ffc022;fill-rule:nonzero;"/></g><g transform="matrix(1.04585,0,0,1.04585,-1.53297,-2.79869)"><path d="M97.55,38.23C99.98,40.66 101.96,42.29 103.39,43.84C104.34,44.87 106.08,44.4 106.36,43.02C108.81,31.22 108.03,21.16 106.36,18.52C105.56,17.26 104.07,16.93 102.71,17.39C100.27,18.2 94.05,22.84 89.66,29.61C89.15,30.4 89.34,31.46 90.12,31.99C91.7,33.06 94.46,35.13 97.55,38.23Z" style="fill:#ffd1d1;fill-rule:nonzero;"/></g><g transform="matrix(1.04585,0,0,1.04585,-1.53297,-2.79869)"><path d="M55.67,77.75C55.62,74.67 60.04,73.2 64.21,73.13C68.39,73.06 72.89,74.42 72.94,77.5C72.99,80.58 67.72,84.63 64.4,84.63C61.09,84.63 55.73,80.82 55.67,77.75Z" style="fill-rule:nonzero;"/></g><g><g transform="matrix(1.04585,0,0,1.04585,-1.53297,-2.79869)"><path d="M7.424,69.791C6.918,69.496 6.261,69.531 5.784,69.926C5.175,70.431 5.09,71.336 5.596,71.946C5.752,72.134 6.174,72.463 7.054,72.661C8.555,72.999 12.659,73.702 20.445,77.396C21.16,77.735 22.017,77.43 22.356,76.715C22.695,76 22.39,75.143 21.675,74.804C13.152,70.761 8.003,69.881 7.424,69.791Z" style="fill:#9e9e9e;"/><path d="M3.373,84.214C3.373,84.214 9.527,82.114 20.109,83.992C20.889,84.131 21.634,83.61 21.772,82.831C21.911,82.051 21.39,81.306 20.611,81.168C9.113,79.126 2.427,81.506 2.427,81.506C1.68,81.766 1.285,82.585 1.546,83.333C1.806,84.08 2.625,84.475 3.373,84.214Z" style="fill:#9e9e9e;"/><path d="M9.455,93.571C9.455,93.571 12.09,92.303 21.605,91.469C22.394,91.4 22.978,90.703 22.909,89.915C22.84,89.126 22.143,88.542 21.355,88.611C11.01,89.517 8.165,91.009 8.165,91.009C7.458,91.365 7.173,92.228 7.529,92.935C7.885,93.642 8.748,93.927 9.455,93.571Z" style="fill:#9e9e9e;"/></g><g transform="matrix(1.04585,0,0,1.04585,-1.53297,-2.79869)"><path d="M120.732,66.082C120.732,66.082 117.159,66.36 106.219,72.604C105.531,72.997 105.292,73.873 105.684,74.561C106.077,75.249 106.953,75.488 107.641,75.096C117.761,69.32 121.008,68.938 121.008,68.938C121.796,68.861 122.374,68.16 122.298,67.372C122.221,66.584 121.52,66.006 120.732,66.082Z" style="fill:#9e9e9e;"/><path d="M122.521,77.059C122.521,77.059 117.303,76.669 106.072,79.057C105.297,79.222 104.802,79.984 104.967,80.758C105.132,81.533 105.894,82.028 106.668,81.863C117.357,79.591 122.319,79.921 122.319,79.921C123.109,79.977 123.795,79.381 123.851,78.591C123.907,77.801 123.311,77.115 122.521,77.059Z" style="fill:#9e9e9e;"/><path d="M120.929,87.698C120.929,87.698 115.97,85.922 105.748,85.368C104.957,85.325 104.281,85.932 104.238,86.722C104.195,87.513 104.802,88.189 105.592,88.232C115.27,88.758 119.971,90.402 119.971,90.402C120.718,90.666 121.538,90.275 121.802,89.529C122.066,88.782 121.675,87.962 120.929,87.698Z" style="fill:#9e9e9e;"/></g></g><g transform="matrix(1.04585,0,0,1.04585,-1.53297,-2.79869)"><path d="M96.09,66.37C95.75,71.88 92.33,74.91 88.44,74.91C84.55,74.91 81.4,71.03 81.4,66.25C81.4,61.47 84.68,57.54 89.05,57.78C94.12,58.07 96.37,61.87 96.09,66.37Z" style="fill:#000200;fill-rule:nonzero;"/></g><g transform="matrix(1.04585,0,0,1.04585,-1.53297,-2.79869)"><path d="M46,65.81C46.78,71.42 44.42,74.84 40.51,75.63C36.6,76.42 33.25,73.79 32.28,68.99C31.3,64.18 33.18,59.67 37.62,59.02C42.77,58.27 45.36,61.22 46,65.81Z" style="fill:#000200;fill-rule:nonzero;"/></g><g transform="matrix(1.04585,0,0,1.04585,-1.53297,-2.79869)"><path d="M44.99,85.16C42.42,86.83 45.46,90.7 47.24,92.01C49.02,93.32 52.22,94.93 56.91,94.45C62.45,93.89 64.04,89.76 64.04,89.76C64.04,89.76 66.01,94.36 72.86,94.55C79.81,94.74 81.96,90.98 82.9,89.86C83.84,88.73 84.78,85.82 83.18,84.7C81.58,83.57 80.46,84.98 78.77,87.33C77.08,89.68 73.61,90.99 70.23,89.39C66.85,87.79 66.66,82.35 66.66,82.35L61.87,82.63C61.87,82.63 61.12,87.32 58.96,88.82C56.8,90.32 51.64,90.7 49.48,87.41C48.53,85.95 47.15,83.75 44.99,85.16Z" style="fill-rule:nonzero;"/></g></svg>