<?xml version="1.0" encoding="UTF-8" standalone="no"?><!DOCTYPE svg PUBLIC "-//W3C//DTD SVG 1.1//EN" "http://www.w3.org/Graphics/SVG/1.1/DTD/svg11.dtd">
<svg width="72px" height="72px" version="1.1" xmlns="http://www.w3.org/2000/svg"
    xml:space="preserve" style="fill-rule:evenodd;clip-rule:evenodd;stroke-linecap:round;stroke-linejoin:round;stroke-miterlimit:10;"><g transform="matrix(1.29192,0,0,1.29192,-10.3345,-12.3632)"><g id="color"><path d="M39.386,22.357C39.849,22.357 40.257,22.052 40.379,21.604C40.939,19.551 42.97,14.675 48.033,14C55.867,12.955 59.001,18.178 59.001,22.357C59.001,27.417 56.912,27.579 55.586,29.954C55.322,30.426 55.178,31.012 55.551,31.403C60.994,37.1 63.741,61.006 36.02,61.006C10.951,61.006 9,41 16.476,31.384C16.809,30.956 16.867,30.383 16.502,29.981C15.032,28.366 11.943,24.317 13.562,20.267C15.651,15.045 19.83,14 22.963,14C25.966,14 30.888,15.919 32.212,21.595C32.318,22.048 32.74,22.357 33.205,22.357L39.386,22.357Z" style="fill:#b1cc33;fill-rule:nonzero;"/></g></g><g id="line" transform="matrix(0.935086,0,0,0.935086,2.46325,0.99489)"><g transform="matrix(1.3816,0,0,1.3816,-13.6861,-14.2854)"><path d="M39.386,22.357C39.849,22.357 40.257,22.052 40.379,21.604C40.939,19.551 42.97,14.675 48.033,14C55.867,12.955 59.001,18.178 59.001,22.357C59.001,27.417 56.912,27.579 55.586,29.954C55.322,30.426 55.178,31.012 55.551,31.403C60.994,37.1 63.741,61.006 36.02,61.006C10.951,61.006 9,41 16.476,31.384C16.809,30.956 16.867,30.383 16.502,29.981C15.032,28.366 11.943,24.317 13.562,20.267C15.651,15.045 19.83,14 22.963,14C25.966,14 30.888,15.919 32.212,21.595C32.318,22.048 32.74,22.357 33.205,22.357L39.386,22.357Z" style="fill:none;fill-rule:nonzero;stroke:#000;stroke-width:2.17px;"/></g><g transform="matrix(1.3816,0,0,1.3816,-13.6861,-14.2854)"><path d="M22.441,48.471C22.441,48.471 36.02,61.006 50.644,48.471" style="fill:none;fill-rule:nonzero;stroke:#000;stroke-width:2px;"/></g><g transform="matrix(1.3816,0,0,1.3816,-13.6861,-14.2854)"><circle cx="22.441" cy="23.401" r="3.134"/></g><g transform="matrix(1.3816,0,0,1.3816,-13.6861,-14.2854)"><circle cx="49.6" cy="23.401" r="3.134"/></g><g transform="matrix(1.3816,0,0,1.3816,-13.6861,-14.2854)"><circle cx="31.842" cy="43.248" r="2.089"/></g><g transform="matrix(1.3816,0,0,1.3816,-13.6861,-14.2854)"><circle cx="40.199" cy="43.248" r="2.089"/></g></g></svg>